<?xml version="1.0" encoding="UTF-8"?>
<svg id="Layer_2" data-name="Layer 2" xmlns="http://www.w3.org/2000/svg" viewBox="0 0 1721.38 1024.75">
  <defs>
    <style>
      .cls-1 {
        stroke-width: 3px;
      }

      .cls-1, .cls-2 {
        fill: none;
        stroke: #fff;
        stroke-miterlimit: 10;
      }

      .cls-2 {
        stroke-width: .75px;
      }
    </style>
  </defs>
  <g id="Grid">
    <g>
      <line class="cls-2" x1=".38" y1=".38" x2="854.38" y2=".38"/>
      <line class="cls-2" x1=".38" y1="768.38" x2="854.38" y2="768.38"/>
      <line class="cls-2" x1=".38" y1="512.38" x2="854.38" y2="512.38"/>
      <line class="cls-2" x1=".38" y1="256.38" x2="854.38" y2="256.38"/>
      <line class="cls-2" x1=".38" y1="1024.38" x2="854.38" y2="1024.38"/>
      <line class="cls-2" x1=".38" y1=".38" x2=".38" y2="1024.38"/>
      <line class="cls-2" x1="292.64" y1=".38" x2="292.64" y2="1024.38"/>
      <line class="cls-2" x1="487.49" y1=".38" x2="487.49" y2="1024.38"/>
      <line class="cls-2" x1="617.39" y1=".38" x2="617.39" y2="1024.38"/>
      <line class="cls-2" x1="703.99" y1=".38" x2="703.99" y2="1024.38"/>
      <line class="cls-2" x1="761.72" y1=".38" x2="761.72" y2="1024.38"/>
      <line class="cls-2" x1="800.21" y1=".38" x2="800.21" y2="1024.38"/>
      <line class="cls-2" x1="825.87" y1=".38" x2="825.87" y2="1024.38"/>
      <line class="cls-2" x1="842.97" y1=".38" x2="842.97" y2="1024.38"/>
      <line class="cls-1" x1="854.38" y1=".38" x2="854.38" y2="1024.38"/>
    </g>
    <g>
      <line class="cls-2" x1="854.81" y1=".38" x2="1708.81" y2=".38"/>
      <line class="cls-2" x1="854.81" y1="768.38" x2="1721.38" y2="768.38"/>
      <line class="cls-2" x1="854.81" y1="512.38" x2="1721.38" y2="512.38"/>
      <line class="cls-2" x1="854.81" y1="256.38" x2="1721.38" y2="256.38"/>
      <line class="cls-2" x1="854.81" y1="1024.38" x2="1708.81" y2="1024.38"/>
      <line class="cls-2" x1="854.81" y1=".38" x2="854.81" y2="1024.38"/>
      <line class="cls-2" x1="1147.08" y1=".38" x2="1147.08" y2="1024.38"/>
      <line class="cls-2" x1="1341.93" y1=".38" x2="1341.93" y2="1024.38"/>
      <line class="cls-2" x1="1471.83" y1=".38" x2="1471.83" y2="1024.38"/>
      <line class="cls-2" x1="1558.42" y1=".38" x2="1558.42" y2="1024.38"/>
      <line class="cls-2" x1="1616.16" y1=".38" x2="1616.16" y2="1024.38"/>
      <line class="cls-2" x1="1654.64" y1=".38" x2="1654.64" y2="1024.38"/>
      <line class="cls-2" x1="1680.3" y1=".38" x2="1680.3" y2="1024.38"/>
      <line class="cls-2" x1="1697.41" y1=".38" x2="1697.41" y2="1024.38"/>
      <line class="cls-1" x1="1708.81" y1=".38" x2="1708.81" y2="1024.38"/>
    </g>
  </g>
</svg>