<?xml version="1.0" encoding="UTF-8"?>
<svg id="Layer_2" data-name="Layer 2" xmlns="http://www.w3.org/2000/svg" xmlns:xlink="http://www.w3.org/1999/xlink" viewBox="0 0 875.02 860.33">
  <defs>
    <style>
      .cls-1 {
        filter: url(#outer-glow-1);
      }

      .cls-2 {
        fill: #fff;
      }
    </style>
    <filter id="outer-glow-1" x="-72.49" y="20.17" width="1028" height="611" filterUnits="userSpaceOnUse">
      <feOffset dx="0" dy="0"/>
      <feGaussianBlur result="blur" stdDeviation="27"/>
      <feFlood flood-color="#000" flood-opacity=".44"/>
      <feComposite in2="blur" operator="in"/>
      <feComposite in="SourceGraphic"/>
    </filter>
  </defs>
  <g id="Text" class="cls-1">
    <g>
      <path class="cls-2" d="M181.03,468.9c-8.05,7.06-19.43,13.44-34.14,19.13-14.72,5.69-32.48,8.54-53.28,8.54-10.99,0-21.59-1.18-31.79-3.53-10.21-2.35-19.23-5.93-27.08-10.74-7.85-4.81-14.08-10.94-18.69-18.4-4.61-7.46-6.92-16.19-6.92-26.2V138.64c0-18.05,44.25-27.08,132.75-27.08h172.78c2.55,4.52,4.9,9.71,7.06,15.6,2.16,5.89,3.92,11.92,5.3,18.1,1.37,6.18,2.45,12.36,3.24,18.54.78,6.18,1.18,11.92,1.18,17.22,0,21.98-4.71,38.71-14.13,50.19-9.42,11.48-24.43,17.22-45.04,17.22h-101.85c-3.93,0-6.77.88-8.54,2.65-1.77,1.77-2.65,4.02-2.65,6.77v2.21c0,1.08.19,1.82.59,2.21h130.1c4.12,7.06,7.65,15.7,10.6,25.9,2.94,10.21,4.42,20.8,4.42,31.79,0,15.7-1.91,28.7-5.74,39-3.83,10.3-7.9,18.1-12.22,23.4h-144.23c-1.57,1.57-2.35,3.34-2.35,5.3,0,1.77.63,3.09,1.91,3.97,1.27.88,3.43,1.52,6.48,1.91,3.04.4,7.16.59,12.36.59s11.82.1,19.87.29v74.47Z"/>
      <path class="cls-2" d="M470.8,413.54c0,8.29-1.25,16.16-3.76,23.63-2.51,7.47-6.46,14.23-11.86,20.28-5.4,6.05-12.29,11.34-20.69,15.86-8.4,4.52-18.53,7.99-30.42,10.38,0,2.29.54,3.9,1.64,4.82,1.09.93,2.4,1.39,3.92,1.39,2.83,0,6.3-.49,10.38-1.47,4.09-.98,8.28-2.4,12.59-4.25,4.3-1.85,8.5-4.06,12.59-6.62,4.09-2.56,7.6-5.42,10.55-8.58,5.23,5.23,9.13,11.5,11.69,18.81,2.56,7.31,3.84,14.83,3.84,22.57s-1.2,14.77-3.6,21.75c-2.4,6.98-6.05,12.92-10.96,17.82h-147.01c-8.4-12.43-12.59-26.54-12.59-42.35,0-6.54.71-13.11,2.13-19.71,1.42-6.59,3.65-12.56,6.7-17.91,10.14-1.96,20.25-4.88,30.33-8.75,10.08-3.87,19.13-8.34,27.15-13.41s14.53-10.66,19.54-16.76c5.01-6.1,7.52-12.37,7.52-18.81,0-3.16-.71-5.81-2.13-7.93-1.42-2.13-3.49-3.19-6.21-3.19-3.05,0-5.15.96-6.29,2.86-1.15,1.91-1.72,3.95-1.72,6.13s.49,4.36,1.47,6.54c.98,2.18,2.4,3.92,4.25,5.23-2.94,4.36-6.65,8.42-11.12,12.18-4.47,3.76-9.29,7.2-14.47,10.3-5.18,3.11-10.52,5.83-16.03,8.18-5.51,2.35-10.77,4.23-15.78,5.64-9.38-6.21-16.57-13.76-21.59-22.65-5.02-8.88-7.52-18.94-7.52-30.17s2.34-21.01,7.03-29.68c4.69-8.67,11.01-15.94,18.97-21.83,7.96-5.89,17.22-10.36,27.8-13.41,10.57-3.05,21.69-4.58,33.36-4.58,12.32,0,23.96,1.69,34.91,5.07,10.96,3.38,20.52,8.37,28.7,14.96,8.18,6.6,14.66,14.72,19.46,24.37,4.8,9.65,7.2,20.74,7.2,33.28Z"/>
      <path class="cls-2" d="M644.25,491.57c-15.5,0-30.91-1.42-46.21-4.27-15.31-2.84-29.83-7.41-43.56-13.69-13.74-6.28-26.49-14.42-38.27-24.43-11.77-10.01-21.98-22.17-30.61-36.5-8.64-14.32-15.41-30.95-20.31-49.89-4.91-18.94-7.36-40.47-7.36-64.61s2.5-44.74,7.51-63.58,11.92-35.52,20.75-50.04c8.83-14.52,19.28-26.98,31.35-37.38,12.07-10.4,25.17-18.94,39.3-25.61,14.13-6.67,28.94-11.58,44.45-14.72,15.5-3.14,31.2-4.71,47.1-4.71,30.81,0,58.33,4.76,82.57,14.28,24.23,9.52,44.69,22.81,61.37,39.88,16.68,17.07,29.38,37.43,38.12,61.08,8.73,23.65,13.1,49.6,13.1,77.86,0,18.25-1.91,35.03-5.74,50.33-3.83,15.31-9.37,29.34-16.63,42.09h42.68c7.06,21.19,10.6,41.21,10.6,60.05,0,13.74-1.91,26.45-5.74,38.12-3.83,11.67-9.57,21.73-17.22,30.17-7.65,8.43-17.27,15.06-28.85,19.87-11.58,4.81-25.12,7.21-40.62,7.21-13.35,0-25.66-2.21-36.94-6.62-11.29-4.42-21.63-11.33-31.05-20.75-9.42-9.42-18.01-21.54-25.76-36.35-7.75-14.81-14.67-32.53-20.75-53.13h-1.47c-2.16,0-4.27.54-6.33,1.62-2.06,1.08-3.09,3.68-3.09,7.8,0,4.91,1.62,12.12,4.86,21.63,3.24,9.52,8.19,20.36,14.86,32.53-10.4,1.18-21.1,1.77-32.08,1.77ZM673.68,324.96c-1.57,0-3.58.1-6.03.29-2.46.2-4.76.49-6.92.88v-76.83c0-8.44-2.85-12.66-8.54-12.66-2.75,0-4.91,1.03-6.48,3.09-1.57,2.06-2.36,5.35-2.36,9.86v80.65c-2.55.98-5.2,2.21-7.95,3.68-2.75,1.47-5.25,3.14-7.51,5-2.26,1.87-4.12,3.88-5.59,6.03-1.47,2.16-2.21,4.52-2.21,7.06,0,3.34,1.57,5.59,4.71,6.77,1.96-2.16,4.46-4.41,7.51-6.77,3.04-2.35,6.62-4.51,10.74-6.48,4.12-1.96,8.73-3.58,13.83-4.86,5.1-1.27,10.79-1.91,17.07-1.91,9.42,0,18.2,1.18,26.34,3.53,8.14,2.35,16.43,7.26,24.87,14.72l2.06,1.77c2.55-1.57,3.83-4.02,3.83-7.36,0-2.55-1.23-5.39-3.68-8.54-2.46-3.14-6.08-6.03-10.89-8.68-4.81-2.65-10.79-4.86-17.96-6.62-7.17-1.77-15.45-2.65-24.87-2.65Z"/>
    </g>
  </g>
</svg>